<?xml version="1.0" encoding="UTF-8"?>
<!-- Created with Inkscape (http://www.inkscape.org/) -->
<svg width="134.59mm" height="166.78mm" version="1.1" viewBox="0 0 134.59 166.78" xmlns="http://www.w3.org/2000/svg" xmlns:cc="http://creativecommons.org/ns#" xmlns:dc="http://purl.org/dc/elements/1.1/" xmlns:osb="http://www.openswatchbook.org/uri/2009/osb" xmlns:rdf="http://www.w3.org/1999/02/22-rdf-syntax-ns#" xmlns:xlink="http://www.w3.org/1999/xlink">
 <defs>
  <linearGradient id="linearGradient8748-7">
   <stop stop-color="#00d4aa" offset="0"/>
   <stop stop-color="#6f916f" offset="1"/>
  </linearGradient>
  <linearGradient id="linearGradient8757" x1="-603" x2="-617.94" y1="242.69" y2="89.376" gradientUnits="userSpaceOnUse" xlink:href="#linearGradient8748-7"/>
 </defs>
 <metadata>
  <rdf:RDF>
   <cc:Work rdf:about="">
    <dc:format>image/svg+xml</dc:format>
    <dc:type rdf:resource="http://purl.org/dc/dcmitype/StillImage"/>
    <dc:title/>
   </cc:Work>
  </rdf:RDF>
 </metadata>
 <g transform="translate(668.01 -61.014)">
  <g transform="matrix(1.2787 0 0 1.2787 186.27 -63.589)" fill="none" stroke="url(#linearGradient8757)" stroke-linecap="round" stroke-width="2.0692">
   <path d="m-600.1 169.97c-4.2483 3.2855-9.5777 5.2406-15.364 5.2406"/>
   <path d="m-593.99 163.15c-0.84823 1.3892-1.8275 2.6898-2.9207 3.8843"/>
   <path d="m-590.32 150.07c0 2.4418-0.34819 4.8023-0.99761 7.0345"/>
   <path d="m-583.71 150.07c0 8.7675-3.5538 16.705-9.2994 22.451-2.0026 2.0026-4.2716 3.739-6.7492 5.1514"/>
   <path d="m-582.39 169.54c-1.6533 2.8028-3.6528 5.377-5.9397 7.6639-1.2664 1.2664-2.6209 2.4446-4.0535 3.5248"/>
   <path d="m-578.91 161.77c-0.47517 1.4862-1.0385 2.933-1.6838 4.3343"/>
   <path d="m-577.1 150.07c0 1.7693-0.11975 3.5106-0.35163 5.2162"/>
   <path d="m-570.48 150.07c0 12.421-5.0344 23.665-13.174 31.805-0.83719 0.83721-1.7073 1.6416-2.6081 2.411"/>
   <path d="m-571.99 177.88c-2.0131 3.14-4.3572 6.0476-6.983 8.6734-0.65974 0.65973-1.3373 1.3017-2.0318 1.9251"/>
   <path d="m-568.02 170.38c-0.61365 1.4318-1.2902 2.8302-2.0263 4.1918"/>
   <path d="m-563.87 150.07c0 4.8463-0.66817 9.5365-1.9175 13.984"/>
   <path d="m-592.72 139.34c1.5386 3.2543 2.3991 6.892 2.3991 10.731"/>
   <path d="m-597.69 132.3c1.0997 1.0997 2.098 2.3008 2.9796 3.5882"/>
   <path d="m-619.5 125.26c1.3148-0.21235 2.6637-0.32271 4.0385-0.32271 4.5479 0 8.8138 1.2079 12.494 3.3203"/>
   <path d="m-627.66 128.09c1.3541-0.75347 2.785-1.3854 4.2781-1.8812"/>
   <path d="m-639.12 141.58c1.2653-3.5242 3.2954-6.6839 5.8904-9.2788 0.082-0.082 0.16457-0.16344 0.24768-0.2443"/>
   <path d="m-640.6 150.07c0-1.5883 0.14732-3.1422 0.42905-4.6488"/>
   <path d="m-584.94 141.3c0.79946 2.7864 1.2277 5.7298 1.2277 8.7732"/>
   <path d="m-588.67 133.03c0.86654 1.3592 1.6324 2.7889 2.2873 4.2784"/>
   <path d="m-635.03 125.07c5.3926-4.2267 12.187-6.7467 19.57-6.7467 8.7675-1e-5 16.705 3.5537 22.451 9.2994 0.0708 0.0708 0.14129 0.14193 0.2114 0.2134"/>
   <path d="m-640.96 131.15c0.92879-1.2494 1.9472-2.4281 3.0458-3.5267"/>
   <path d="m-647.21 150.07c0-4.6543 1.0014-9.0746 2.8006-13.057"/>
   <path d="m-586.8 124.57c6.0367 6.7788 9.7046 15.713 9.7046 25.504"/>
   <path d="m-593.26 118.78c1.2809 0.91037 2.5036 1.8974 3.6612 2.9544"/>
   <path d="m-629.75 114.46c4.4169-1.7741 9.2402-2.7503 14.291-2.7503 5.9142 0 11.516 1.3382 16.519 3.7284"/>
   <path d="m-637.53 118.69c1.2983-0.9145 2.656-1.7505 4.066-2.501"/>
   <path d="m-653.82 150.07c0-10.594 4.2941-20.185 11.237-27.128"/>
   <path d="m-571.42 140.91c0.61274 2.9595 0.93471 6.0254 0.93471 9.1665"/>
   <path d="m-575.08 130.25c0.6881 1.399 1.3056 2.8389 1.848 4.3152"/>
   <path d="m-608.86 105.58c9.7774 1.4387 18.531 6.0233 25.201 12.693 2.5516 2.5516 4.7981 5.4084 6.68 8.5109"/>
   <path d="m-620.1 105.33c1.5266-0.15659 3.0759-0.23683 4.644-0.23683"/>
   <path d="m-644.43 115.67c5.7688-4.8632 12.778-8.302 20.484-9.7741"/>
   <path d="m-650.38 121.72c0.97893-1.2043 2.0189-2.3569 3.1153-3.4533"/>
   <path d="m-660.44 150.07c0-8.3435 2.2717-16.156 6.2304-22.854"/>
   <path d="m-570.35 125.02c4.1283 7.4182 6.48 15.961 6.48 25.053"/>
   <path d="m-575.08 117.96c0.96936 1.217 1.8848 2.4789 2.7428 3.7819"/>
   <path d="m-644.08 107.14c8.1889-5.4685 18.03-8.6566 28.616-8.6566 13.925-1e-5 26.561 5.5165 35.843 14.483"/>
   <path d="m-653.16 114.85c0.39889-0.42675 0.80492-0.84672 1.2179-1.2597 0.72552-0.72551 1.4725-1.4295 2.24-2.111"/>
   <path d="m-667.05 150.07c0-12.209 4.2404-23.427 11.329-32.262"/>
   <path d="m-591.19 220.25c0.33589 1.2468 0.57828 2.532 0.71917 3.8475"/>
   <path d="m-615.46 201.67c6.941 0 13.225 2.8134 17.773 7.362 1.9112 1.9112 3.5161 4.1288 4.7347 6.5728"/>
   <path d="m-583.83 224.08c0.0762 0.89723 0.11504 1.8051 0.11504 2.7221"/>
   <path d="m-585.75 215.59c0.56687 1.5012 1.0232 3.0566 1.3591 4.6564"/>
   <path d="m-595.25 202.31c0.77925 0.64381 1.5272 1.3241 2.2414 2.0382 1.4268 1.4268 2.7185 2.9889 3.8542 4.6652"/>
   <path d="m-605.18 196.76c1.4783 0.50579 2.9074 1.1176 4.2782 1.8264"/>
   <path d="m-615.46 195.05c2.2517 0 4.4486 0.23439 6.5676 0.6801"/>
   <path d="m-589.19 198.84c0.29109 0.27356 0.5779 0.55162 0.86034 0.83405 5.4669 5.4669 9.2916 12.576 10.671 20.524"/>
   <path d="m-596.06 193.7c1.365 0.80187 2.676 1.6858 3.9263 2.6449"/>
   <path d="m-615.46 188.44c4.5859 0 8.9839 0.80464 13.06 2.2804"/>
   <path d="m-570.57 224.02c0.0561 0.91946 0.0845 1.8464 0.0845 2.78"/>
   <path d="m-571.9 215.54c0.39185 1.5191 0.70633 3.0693 0.93898 4.6461"/>
   <path d="m-589.64 189.97c2.139 1.5022 4.1412 3.186 5.9842 5.029 3.9856 3.9856 7.2267 8.7157 9.4968 13.964"/>
   <path d="m-597.31 185.64c1.4953 0.66033 2.9478 1.3997 4.3522 2.2129"/>
   <path d="m-615.46 181.82c3.8741 0 7.6338 0.48978 11.221 1.4108"/>
   <path d="m-569.15 204.03c2.461 4.9936 4.138 10.443 4.8705 16.187"/>
   <path d="m-573.52 196.75c0.90339 1.2582 1.7516 2.5588 2.541 3.8982"/>
   <path d="m-615.46 175.21c14.247 0 27.146 5.7748 36.482 15.111 0.41293 0.41294 0.81891 0.83284 1.2177 1.2595"/>
   <path d="m-667.05 215.64 2e-5 4.6431"/>
   <path d="m-667.05 189.7v19.356"/>
   <path d="m-667.05 181.22v4.6431"/>
   <path d="m-667.05 150.07v24.557"/>
   <path d="m-660.44 204.68v22.152"/>
   <path d="m-660.44 196.2v4.6431"/>
   <path d="m-660.44 167.64v21.973"/>
   <path d="m-660.44 159.16v4.6431"/>
   <path d="m-660.44 150.07 3e-5 2.4944"/>
   <path d="m-653.82 209.32v6.5867"/>
   <path d="m-653.82 178.87 2e-5 21.973"/>
   <path d="m-653.82 167.64v4.6431"/>
   <path d="m-653.82 150.07v13.724"/>
   <path d="m-647.21 211.27v11.23"/>
   <path d="m-647.21 193.93-2e-5 13.492"/>
   <path d="m-647.21 182.71v4.6431"/>
   <path d="m-647.21 150.07v28.793"/>
   <path d="m-640.6 215.83v6.5867"/>
   <path d="m-640.6 178.87v28.481"/>
   <path d="m-640.6 167.64v4.6431"/>
   <path d="m-640.6 156.66-3e-5 7.1376"/>
   <path d="m-640.6 150.07"/>
  </g>
 </g>
</svg>
